<svg id="visual" viewBox="0 0 900 600" width="900" height="600" xmlns="http://www.w3.org/2000/svg" xmlns:xlink="http://www.w3.org/1999/xlink" version="1.1"><rect x="0" y="0" width="900" height="600" fill="#fff"></rect><g transform="translate(451.87948262538544 309.1413169845504)"><path d="M95.6 -152.9C125.9 -129.2 153.9 -106.1 169.1 -76.2C184.3 -46.3 186.7 -9.6 177.5 22.6C168.4 54.8 147.7 82.4 126.2 112.3C104.8 142.1 82.7 174.2 53.4 183.5C24.1 192.9 -12.3 179.4 -43.7 163.5C-75 147.5 -101.3 129 -125.6 106C-150 83 -172.5 55.5 -181.7 23.2C-190.9 -9.1 -186.9 -46.3 -173 -80C-159.2 -113.7 -135.6 -143.9 -105.1 -167.5C-74.6 -191.1 -37.3 -208 -2.3 -204.4C32.6 -200.8 65.2 -176.5 95.6 -152.9" fill="#e03838"></path></g></svg>