<svg id="visual" viewBox="0 0 900 600" width="900" height="600" xmlns="http://www.w3.org/2000/svg" xmlns:xlink="http://www.w3.org/1999/xlink" version="1.1"><rect x="0" y="0" width="900" height="600" fill="#fff"></rect><g transform="translate(446.6429507578666 312.0196124035438)"><path d="M136.1 -210.1C179.9 -183.6 221.4 -151.8 247.2 -108.9C272.9 -66 283 -11.9 276.8 40.7C270.6 93.4 248.3 144.6 211.7 179.3C175.2 214 124.3 232.2 76.1 235.6C27.9 238.9 -17.8 227.4 -62 213.4C-106.2 199.4 -149.1 182.9 -188 154C-227 125.1 -262 83.9 -270 37.9C-278 -8.1 -259.1 -58.9 -234.1 -104.1C-209.1 -149.4 -178.1 -189.1 -138.1 -217.3C-98 -245.5 -49 -262.3 -1.4 -260C46.1 -257.8 92.3 -236.6 136.1 -210.1" fill="#51bfc9"></path></g></svg>