<svg id="visual" viewBox="0 0 960 540" width="960" height="540" xmlns="http://www.w3.org/2000/svg" xmlns:xlink="http://www.w3.org/1999/xlink" version="1.1"><rect x="0" y="0" width="960" height="540" fill="#fff"></rect><path d="M391 0L374.7 12.8C358.3 25.7 325.7 51.3 307 77C288.3 102.7 283.7 128.3 314.5 154C345.3 179.7 411.7 205.3 419 231.2C426.3 257 374.7 283 357.2 308.8C339.7 334.7 356.3 360.3 383.8 386C411.3 411.7 449.7 437.3 432.7 463C415.7 488.7 343.3 514.3 307.2 527.2L271 540L0 540L0 527.2C0 514.3 0 488.7 0 463C0 437.3 0 411.7 0 386C0 360.3 0 334.7 0 308.8C0 283 0 257 0 231.2C0 205.3 0 179.7 0 154C0 128.3 0 102.7 0 77C0 51.3 0 25.7 0 12.8L0 0Z" fill="#51bfc9" stroke-linecap="round" stroke-linejoin="miter"></path></svg>