<svg id="visual" viewBox="0 0 960 540" width="960" height="540" xmlns="http://www.w3.org/2000/svg" xmlns:xlink="http://www.w3.org/1999/xlink" version="1.1"><rect x="0" y="0" width="960" height="540" fill="#fff"></rect><path d="M171 0L161 12.8C151 25.7 131 51.3 135.7 77C140.3 102.7 169.7 128.3 199.5 154C229.3 179.7 259.7 205.3 259.5 231.2C259.3 257 228.7 283 209.5 308.8C190.3 334.7 182.7 360.3 201 386C219.3 411.7 263.7 437.3 277.3 463C291 488.7 274 514.3 265.5 527.2L257 540L0 540L0 527.2C0 514.3 0 488.7 0 463C0 437.3 0 411.7 0 386C0 360.3 0 334.7 0 308.8C0 283 0 257 0 231.2C0 205.3 0 179.7 0 154C0 128.3 0 102.7 0 77C0 51.3 0 25.7 0 12.8L0 0Z" fill="#51bfc9" stroke-linecap="round" stroke-linejoin="miter"></path></svg>